<?xml version="1.0" encoding="UTF-8" standalone="no"?>
<svg xmlns="http://www.w3.org/2000/svg" viewBox="0 0 156 156" width="100%" height="100%">
  <g transform="translate(125,15)">
    <path d="M0 0 C17.10983659 13.42960759 28.02868315 32.35934721 31 54 C32.44552756 76.18619192 26.87964081 97.45363276 12.24511719 114.65380859 C-0.87881017 129.34456263 -20.07070834 139.83182813 -39.93725586 141.1262207 C-62.29665592 141.94739489 -83.20744051 136.04406938 -100.1875 120.875 C-114.60571165 107.42173171 -124.47370936 87.82969592 -125.203125 67.96875 C-125.59627943 45.55644337 -118.98414939 24.9336362 -103.46582031 8.30224609 C-75.45925811 -20.24181579 -32.23487312 -22.07524385 0 0 Z M-103.70703125 40.0078125 C-106.4091882 44.22847263 -108.14217809 48.12266438 -108.3125 53.1875 C-108.34988281 53.90292969 -108.38726562 54.61835937 -108.42578125 55.35546875 C-106.94073768 64.579088 -100.13240984 70.45653091 -93.77392578 76.69262695 C-92.12350986 78.31396388 -90.49270215 79.95329586 -88.86328125 81.59570312 C-87.80840177 82.64434705 -86.75244784 83.69191148 -85.6953125 84.73828125 C-85.21385773 85.22267166 -84.73240295 85.70706207 -84.23635864 86.20613098 C-79.23332117 91.0733201 -74.18808977 93.50688519 -67.30078125 94.0625 C-60.52296698 93.8783828 -55.81462077 90.45352421 -51 86 C-51.99 82.37 -52.98 78.74 -54 75 C-52.94941406 76.12019531 -51.89882812 77.24039063 -50.81640625 78.39453125 C-49.39926446 79.86798331 -47.98124897 81.3405954 -46.5625 82.8125 C-45.87478516 83.55048828 -45.18707031 84.28847656 -44.47851562 85.04882812 C-39.24413411 90.4292854 -34.38249224 93.6153262 -26.76586914 94.15966797 C-15.59937494 93.68081174 -7.56697612 84.08792567 -0.1875 76.6875 C0.73998047 75.78837891 1.66746094 74.88925781 2.62304688 73.96289062 C8.81293871 67.79084996 13.35122214 62.28290542 14.4375 53.4375 C13.45114745 45.68758707 11.14893781 41.3310049 4.97265625 36.41015625 C-0.08065242 32.79779104 -4.90608843 32.18476099 -11 33 C-15.64475738 34.48632236 -18.94607723 36.76016198 -22.25 40.3125 C-23.1575 41.199375 -24.065 42.08625 -25 43 C-28.57797476 42.78271408 -30.37434545 40.97779084 -32.875 38.5625 C-37.89531778 34.04236148 -42.12944018 32.52327784 -48.99609375 32.7578125 C-55.64925727 33.56189854 -59.53914962 37.09625583 -64.10546875 41.671875 C-66 43 -66 43 -67.9921875 42.91796875 C-70.42625615 41.80511635 -72.00095711 40.40700916 -73.9375 38.5625 C-78.92633801 34.08721885 -82.79871607 32.43794353 -89.52734375 32.62890625 C-95.03225269 33.45507742 -100.06985585 35.7297618 -103.70703125 40.0078125 Z " fill="#000000"/>
  </g>
</svg>